<svg xmlns="http://www.w3.org/2000/svg" viewBox="0 0 24 24" shape-rendering="crispEdges">
  <rect width="24" height="24" fill="none"/>
  <!-- iso contact shadow -->
  <rect x="9" y="20" width="6" height="1" fill="#20241f"/>
  <rect x="7" y="21" width="10" height="1" fill="#20241f"/>
  <rect x="9" y="22" width="6" height="1" fill="#20241f"/>
  <!-- spear angled to camera-right -->
  <rect x="15" y="5" width="1" height="1" fill="#d8c995"/>
  <rect x="15" y="6" width="1" height="2" fill="#6a4a33"/>
  <rect x="16" y="8" width="1" height="2" fill="#6a4a33"/>
  <rect x="16" y="10" width="1" height="2" fill="#593e2d"/>
  <rect x="17" y="12" width="1" height="3" fill="#593e2d"/>
  <!-- helmet top and side -->
  <rect x="9" y="5" width="6" height="1" fill="#aeb4af"/>
  <rect x="7" y="6" width="9" height="1" fill="#8b9290"/>
  <rect x="8" y="7" width="5" height="1" fill="#b9bfb8"/>
  <rect x="13" y="7" width="4" height="1" fill="#646b6d"/>
  <rect x="8" y="8" width="8" height="1" fill="#555d62"/>
  <!-- face angled down-right -->
  <rect x="8" y="9" width="4" height="1" fill="#c99262"/>
  <rect x="12" y="9" width="3" height="1" fill="#a06f4d"/>
  <rect x="9" y="10" width="4" height="1" fill="#d7a06b"/>
  <rect x="13" y="10" width="2" height="1" fill="#855a42"/>
  <!-- blue tunic, left/right planes -->
  <rect x="7" y="11" width="6" height="1" fill="#4f79ad"/>
  <rect x="13" y="11" width="4" height="1" fill="#243a62"/>
  <rect x="6" y="12" width="7" height="1" fill="#456b9b"/>
  <rect x="13" y="12" width="5" height="1" fill="#213557"/>
  <rect x="7" y="13" width="6" height="1" fill="#355887"/>
  <rect x="13" y="13" width="4" height="1" fill="#1d2f4c"/>
  <rect x="8" y="14" width="5" height="1" fill="#263f66"/>
  <rect x="13" y="14" width="3" height="1" fill="#182844"/>
  <!-- shield on camera-left arm -->
  <rect x="4" y="11" width="3" height="1" fill="#702f2b"/>
  <rect x="3" y="12" width="5" height="1" fill="#a64632"/>
  <rect x="3" y="13" width="5" height="1" fill="#c65f38"/>
  <rect x="4" y="14" width="4" height="1" fill="#90392d"/>
  <rect x="5" y="15" width="2" height="1" fill="#5f2926"/>
  <!-- legs in iso stance -->
  <rect x="8" y="15" width="3" height="1" fill="#725840"/>
  <rect x="13" y="15" width="3" height="1" fill="#5d4737"/>
  <rect x="8" y="16" width="3" height="1" fill="#5d4737"/>
  <rect x="14" y="16" width="3" height="1" fill="#4b392f"/>
  <rect x="7" y="17" width="3" height="1" fill="#2e2925"/>
  <rect x="15" y="17" width="3" height="1" fill="#2e2925"/>
</svg>
